<svg width="55" height="55" viewBox="0 0 55 55" fill="none" xmlns="http://www.w3.org/2000/svg">
<g id="Group 1976">
<rect id="Rectangle 8" width="55" height="55" fill="#0077C8"/>
<g id="Group 1973">
<g id="Vector">
<path d="M32.4784 26.739L20.7393 32.9999L32.4784 26.739ZM32.4784 39.2608L20.7393 32.9999L32.4784 39.2608Z" fill="white"/>
<path d="M32.4784 26.739L20.7393 32.9999L32.4784 39.2608" stroke="white"/>
</g>
<path id="Vector_2" d="M35.4999 26.3478C35.4999 27.3684 34.6726 28.1957 33.652 28.1957C32.6315 28.1957 31.8042 27.3684 31.8042 26.3478C31.8042 25.3273 32.6315 24.5 33.652 24.5C34.6726 24.5 35.4999 25.3273 35.4999 26.3478Z" fill="white" stroke="white"/>
<path id="Vector_3" d="M35.4999 39.6523C35.4999 40.6728 34.6726 41.5001 33.652 41.5001C32.6315 41.5001 31.8042 40.6728 31.8042 39.6523C31.8042 38.6317 32.6315 37.8044 33.652 37.8044C34.6726 37.8044 35.4999 38.6317 35.4999 39.6523Z" fill="white" stroke="white"/>
<path id="Vector_4" d="M22.1957 32.9999C22.1957 34.0205 21.3684 34.8478 20.3478 34.8478C19.3273 34.8478 18.5 34.0205 18.5 32.9999C18.5 31.9794 19.3273 31.1521 20.3478 31.1521C21.3684 31.1521 22.1957 31.9794 22.1957 32.9999Z" fill="white" stroke="white"/>
</g>
</g>
</svg>
