<svg width="55" height="55" viewBox="0 0 55 55" fill="none" xmlns="http://www.w3.org/2000/svg">
<g id="Group 1974">
<rect id="Rectangle 8" width="55" height="55" fill="#0077C8"/>
<g id="Group 1973">
<path id="Vector" fill-rule="evenodd" clip-rule="evenodd" d="M35.4949 19H35.1923L18.3303 25.6892C18.1278 25.7932 17.9264 26.1075 18.0265 26.3155C18.0265 26.4206 18.229 26.5246 18.3303 26.6298L22.4701 28.1978L24.0856 33.4229C24.1868 33.7361 24.3893 33.8412 24.6919 33.7361C24.7932 33.7361 24.7932 33.7361 24.8944 33.6321L27.2152 31.7509C27.4177 31.5418 27.8215 31.5418 28.0229 31.7509L32.1628 34.8858C32.3653 35.095 32.669 34.991 32.8704 34.7818C32.8704 34.6767 32.9716 34.6767 32.9716 34.5727L36 19.5223C35.8988 19.3131 35.6963 19 35.4949 19ZM31.9614 22.5543L25.3984 28.9281C25.1959 29.1372 24.9934 29.4504 24.9934 29.7635L24.792 31.5406C24.792 31.6446 24.6908 31.7498 24.5895 31.7498C24.4894 31.7498 24.3882 31.6446 24.3882 31.5406L23.9337 29.9726L23.4803 28.4046C23.3791 28.0915 23.4803 27.6732 23.7829 27.4641L31.7589 22.344H31.9614V22.552V22.5543Z" fill="white"/>
</g>
</g>
</svg>
