<svg width="55" height="55" viewBox="0 0 55 55" fill="none" xmlns="http://www.w3.org/2000/svg">
<g id="Group 1977">
<rect id="Rectangle 8" width="55" height="55" fill="#0077C8"/>
<path id="Vector" fill-rule="evenodd" clip-rule="evenodd" d="M35.0724 28.9934C35.7691 29.6228 36.5053 30.2156 37.1292 30.9086C37.4059 31.2166 37.6678 31.5331 37.8654 31.8912C38.1496 32.3997 37.8938 32.9582 37.401 32.9888H34.3423C33.5517 33.0486 32.9242 32.7541 32.3942 32.2542C31.9705 31.8558 31.5789 31.4292 31.1713 31.0174C31.0078 30.844 30.8227 30.692 30.6203 30.5651C30.2028 30.3134 29.8408 30.3904 29.6012 30.7937C29.3578 31.2031 29.3022 31.6578 29.28 32.1149C29.2466 32.7822 29.0292 32.957 28.3041 32.9888C26.7599 33.0548 25.2912 32.8384 23.9286 32.1161C22.7254 31.4806 21.794 30.5823 20.9824 29.5654C19.4024 27.5818 18.193 25.4063 17.106 23.1672C16.8614 22.6637 17.0405 22.3935 17.6408 22.3838C18.6389 22.3671 19.6372 22.3667 20.6353 22.3825C21.0429 22.3887 21.311 22.6025 21.4666 22.9582C22.0009 24.1948 22.6827 25.3638 23.4975 26.4402C23.7186 26.7287 23.9434 27.0159 24.2646 27.22C24.6191 27.4449 24.8897 27.3716 25.0564 27.0049C25.1639 26.7727 25.2096 26.5233 25.2331 26.274C25.3122 25.4197 25.322 24.5654 25.1837 23.7147C25.0984 23.1831 24.776 22.8384 24.2016 22.7382C23.9101 22.6869 23.9521 22.5867 24.0941 22.4327C24.3412 22.1662 24.5722 22 25.033 22H28.4882C29.0317 22.099 29.1552 22.3251 29.2293 22.8335L29.2318 26.3877C29.2256 26.5832 29.338 27.1662 29.7198 27.2958C30.0249 27.3887 30.2262 27.1613 30.4091 26.9829C31.238 26.1689 31.8297 25.2083 32.3572 24.2134C32.5919 23.7746 32.792 23.3212 32.9872 22.8665C33.1329 22.5304 33.359 22.3654 33.7691 22.3703L37.0971 22.374C37.1959 22.374 37.2947 22.3752 37.3911 22.3911C37.9519 22.4791 38.1063 22.7028 37.9321 23.21C37.6604 24.0044 37.1292 24.6681 36.6103 25.3317C36.0545 26.043 35.4615 26.7299 34.9106 27.4449C34.4041 28.0975 34.4448 28.4263 35.0724 28.9934Z" fill="white"/>
</g>
</svg>
